<svg width="21" height="20" viewBox="0 0 21 20" fill="none" xmlns="http://www.w3.org/2000/svg">
<path d="M0.768116 14.0216C0.0335867 14.4457 -0.218082 15.3849 0.205999 16.1194C0.630079 16.854 1.56932 17.1056 2.30385 16.6815L0.768116 14.0216ZM20.7525 5.51083C20.972 4.69157 20.4858 3.84947 19.6666 3.62995L6.31593 0.0526642C5.49667 -0.166856 4.65457 0.319329 4.43505 1.13859C4.21553 1.95785 4.70172 2.79995 5.52098 3.01947L17.3882 6.19928L14.2084 18.0665C13.9889 18.8858 14.4751 19.7279 15.2943 19.9474C16.1136 20.1669 16.9557 19.6807 17.1752 18.8615L20.7525 5.51083ZM2.30385 16.6815L20.0369 6.44334L18.5012 3.78337L0.768116 14.0216L2.30385 16.6815Z" fill="#B9FF66"/>
</svg>
